<?xml version="1.0" standalone="no"?>
<!DOCTYPE svg PUBLIC "-//W3C//DTD SVG 20010904//EN"
 "http://www.w3.org/TR/2001/REC-SVG-20010904/DTD/svg10.dtd">
<svg version="1.0" xmlns="http://www.w3.org/2000/svg"
 width="166.000000pt" height="158.000000pt" viewBox="0 0 166.000000 158.000000"
 preserveAspectRatio="xMidYMid meet">
<metadata>
Created by potrace 1.16, written by Peter Selinger 2001-2019
</metadata>
<g transform="translate(0.000000,158.000000) scale(0.100000,-0.100000)"
fill="#000000" stroke="none">
<path d="M1455 1523 c-11 -2 -50 -11 -86 -19 l-66 -16 115 -114 c63 -63 116
-113 118 -112 6 7 33 129 39 179 6 45 4 59 -10 72 -16 16 -62 21 -110 10z"/>
<path d="M1193 1436 c-106 -55 -174 -108 -276 -215 -72 -77 -187 -227 -187
-246 0 -26 149 -186 233 -252 l58 -45 42 27 c88 58 207 157 266 222 108 118
199 271 186 313 -7 23 -165 185 -210 217 l-31 21 -81 -42z m66 -174 c40 -21
71 -73 71 -117 0 -40 -32 -90 -72 -115 -111 -67 -243 65 -180 179 21 40 73 71
117 71 17 0 46 -8 64 -18z"/>
<path d="M326 759 c-145 -174 -157 -192 -143 -206 11 -12 20 -13 29 -6 7 5 72
56 145 112 l132 102 40 -20 40 -21 50 97 c28 53 51 99 51 103 0 7 -129 30
-168 30 -10 0 -82 -78 -176 -191z"/>
<path d="M666 867 c-25 -46 -60 -114 -77 -152 l-31 -69 70 -69 71 -68 150 76
c83 42 151 79 150 83 0 4 -35 34 -77 68 -42 33 -104 95 -137 136 -33 42 -63
77 -67 77 -4 1 -27 -36 -52 -82z"/>
<path d="M487 599 c-37 -19 -57 -35 -54 -43 4 -9 -9 -18 -35 -25 -44 -14 -117
-80 -143 -131 -10 -19 -12 -29 -5 -25 7 4 1 -12 -14 -37 -14 -25 -34 -69 -45
-99 -10 -30 -31 -79 -46 -108 -23 -46 -24 -53 -8 -46 10 4 52 20 93 36 41 16
86 37 100 47 41 30 54 36 46 24 -12 -21 11 -13 42 13 17 14 37 23 45 20 19 -8
113 96 122 134 4 20 11 28 20 25 9 -4 24 15 44 55 l31 61 -65 65 c-36 36 -66
65 -68 65 -1 -1 -28 -15 -60 -31z m21 -130 c23 -25 42 -53 42 -62 0 -24 -46
-73 -90 -96 -22 -11 -40 -18 -40 -15 0 4 -6 2 -12 -4 -7 -5 -41 -21 -74 -35
l-62 -25 40 87 c22 47 42 94 44 105 2 10 11 28 21 39 20 22 75 58 83 54 3 -1
25 -23 48 -48z"/>
<path d="M865 573 c-49 -25 -91 -47 -93 -48 -2 -2 6 -21 17 -44 l21 -41 -110
-141 c-60 -77 -110 -144 -110 -149 0 -4 6 -13 14 -19 11 -9 52 20 202 145 104
87 191 158 192 160 9 7 -22 184 -32 183 -6 0 -51 -21 -101 -46z"/>
</g>
</svg>
